<?xml version="1.0" encoding="utf-8" standalone="no"?>
<!DOCTYPE svg PUBLIC "-//W3C//DTD SVG 1.1//EN"
  "http://www.w3.org/Graphics/SVG/1.1/DTD/svg11.dtd">
<svg xmlns:xlink="http://www.w3.org/1999/xlink" width="899.821875pt" height="596.463438pt" viewBox="0 0 899.821875 596.463438" xmlns="http://www.w3.org/2000/svg" version="1.1">
 <metadata>
  <rdf:RDF xmlns:dc="http://purl.org/dc/elements/1.1/" xmlns:cc="http://creativecommons.org/ns#" xmlns:rdf="http://www.w3.org/1999/02/22-rdf-syntax-ns#">
   <cc:Work>
    <dc:type rdf:resource="http://purl.org/dc/dcmitype/StillImage"/>
    <dc:date>2026-03-21T13:20:07.538376</dc:date>
    <dc:format>image/svg+xml</dc:format>
    <dc:creator>
     <cc:Agent>
      <dc:title>Matplotlib v3.9.2, https://matplotlib.org/</dc:title>
     </cc:Agent>
    </dc:creator>
   </cc:Work>
  </rdf:RDF>
 </metadata>
 <defs>
  <style type="text/css">*{stroke-linejoin: round; stroke-linecap: butt}</style>
 </defs>
 <g id="figure_1">
  <g id="patch_1">
   <path d="M 0 596.463438 
L 899.821875 596.463438 
L 899.821875 0 
L 0 0 
z
" style="fill: #ffffff"/>
  </g>
  <g id="axes_1">
   <g id="patch_2">
    <path d="M 47.496875 276.70375 
L 892.621875 276.70375 
L 892.621875 22.996875 
L 47.496875 22.996875 
z
" style="fill: #ffffff"/>
   </g>
   <g id="matplotlib.axis_1">
    <g id="xtick_1">
     <g id="line2d_1">
      <path d="M 85.911648 276.70375 
L 85.911648 22.996875 
" clip-path="url(#p6f36f244ab)" style="fill: none; stroke: #b0b0b0; stroke-opacity: 0.24; stroke-width: 0.8; stroke-linecap: square"/>
     </g>
     <g id="line2d_2">
      <defs>
       <path id="m478fa54aa6" d="M 0 0 
L 0 3.5 
" style="stroke: #000000; stroke-width: 0.8"/>
      </defs>
      <g>
       <use xlink:href="#m478fa54aa6" x="85.911648" y="276.70375" style="stroke: #000000; stroke-width: 0.8"/>
      </g>
     </g>
    </g>
    <g id="xtick_2">
     <g id="line2d_3">
      <path d="M 189.038554 276.70375 
L 189.038554 22.996875 
" clip-path="url(#p6f36f244ab)" style="fill: none; stroke: #b0b0b0; stroke-opacity: 0.24; stroke-width: 0.8; stroke-linecap: square"/>
     </g>
     <g id="line2d_4">
      <g>
       <use xlink:href="#m478fa54aa6" x="189.038554" y="276.70375" style="stroke: #000000; stroke-width: 0.8"/>
      </g>
     </g>
    </g>
    <g id="xtick_3">
     <g id="line2d_5">
      <path d="M 292.165461 276.70375 
L 292.165461 22.996875 
" clip-path="url(#p6f36f244ab)" style="fill: none; stroke: #b0b0b0; stroke-opacity: 0.24; stroke-width: 0.8; stroke-linecap: square"/>
     </g>
     <g id="line2d_6">
      <g>
       <use xlink:href="#m478fa54aa6" x="292.165461" y="276.70375" style="stroke: #000000; stroke-width: 0.8"/>
      </g>
     </g>
    </g>
    <g id="xtick_4">
     <g id="line2d_7">
      <path d="M 395.292368 276.70375 
L 395.292368 22.996875 
" clip-path="url(#p6f36f244ab)" style="fill: none; stroke: #b0b0b0; stroke-opacity: 0.24; stroke-width: 0.8; stroke-linecap: square"/>
     </g>
     <g id="line2d_8">
      <g>
       <use xlink:href="#m478fa54aa6" x="395.292368" y="276.70375" style="stroke: #000000; stroke-width: 0.8"/>
      </g>
     </g>
    </g>
    <g id="xtick_5">
     <g id="line2d_9">
      <path d="M 498.419274 276.70375 
L 498.419274 22.996875 
" clip-path="url(#p6f36f244ab)" style="fill: none; stroke: #b0b0b0; stroke-opacity: 0.24; stroke-width: 0.8; stroke-linecap: square"/>
     </g>
     <g id="line2d_10">
      <g>
       <use xlink:href="#m478fa54aa6" x="498.419274" y="276.70375" style="stroke: #000000; stroke-width: 0.8"/>
      </g>
     </g>
    </g>
    <g id="xtick_6">
     <g id="line2d_11">
      <path d="M 601.546181 276.70375 
L 601.546181 22.996875 
" clip-path="url(#p6f36f244ab)" style="fill: none; stroke: #b0b0b0; stroke-opacity: 0.24; stroke-width: 0.8; stroke-linecap: square"/>
     </g>
     <g id="line2d_12">
      <g>
       <use xlink:href="#m478fa54aa6" x="601.546181" y="276.70375" style="stroke: #000000; stroke-width: 0.8"/>
      </g>
     </g>
    </g>
    <g id="xtick_7">
     <g id="line2d_13">
      <path d="M 704.673088 276.70375 
L 704.673088 22.996875 
" clip-path="url(#p6f36f244ab)" style="fill: none; stroke: #b0b0b0; stroke-opacity: 0.24; stroke-width: 0.8; stroke-linecap: square"/>
     </g>
     <g id="line2d_14">
      <g>
       <use xlink:href="#m478fa54aa6" x="704.673088" y="276.70375" style="stroke: #000000; stroke-width: 0.8"/>
      </g>
     </g>
    </g>
    <g id="xtick_8">
     <g id="line2d_15">
      <path d="M 807.799994 276.70375 
L 807.799994 22.996875 
" clip-path="url(#p6f36f244ab)" style="fill: none; stroke: #b0b0b0; stroke-opacity: 0.24; stroke-width: 0.8; stroke-linecap: square"/>
     </g>
     <g id="line2d_16">
      <g>
       <use xlink:href="#m478fa54aa6" x="807.799994" y="276.70375" style="stroke: #000000; stroke-width: 0.8"/>
      </g>
     </g>
    </g>
   </g>
   <g id="matplotlib.axis_2">
    <g id="ytick_1">
     <g id="line2d_17">
      <path d="M 47.496875 230.666356 
L 892.621875 230.666356 
" clip-path="url(#p6f36f244ab)" style="fill: none; stroke: #b0b0b0; stroke-opacity: 0.24; stroke-width: 0.8; stroke-linecap: square"/>
     </g>
     <g id="line2d_18">
      <defs>
       <path id="m4811cee6ca" d="M 0 0 
L -3.5 0 
" style="stroke: #000000; stroke-width: 0.8"/>
      </defs>
      <g>
       <use xlink:href="#m4811cee6ca" x="47.496875" y="230.666356" style="stroke: #000000; stroke-width: 0.8"/>
      </g>
     </g>
     <g id="text_1">
      <!-- 170 -->
      <g transform="translate(25.496875 234.103856) scale(0.1 -0.1)">
       <defs>
        <path id="SimHei-31" d="M 1400 3600 
Q 1075 3275 575 2975 
L 575 3450 
Q 1200 3875 1600 4450 
L 1900 4450 
L 1900 150 
L 1400 150 
L 1400 3600 
z
" transform="scale(0.015625)"/>
        <path id="SimHei-37" d="M 850 150 
Q 1300 2050 2425 3925 
L 275 3925 
L 275 4375 
L 2950 4375 
L 2950 3950 
Q 1775 2050 1400 150 
L 850 150 
z
" transform="scale(0.015625)"/>
        <path id="SimHei-30" d="M 225 2537 
Q 250 3200 412 3587 
Q 575 3975 875 4225 
Q 1175 4475 1612 4475 
Q 2050 4475 2375 4112 
Q 2700 3750 2800 3200 
Q 2900 2650 2862 1937 
Q 2825 1225 2612 775 
Q 2400 325 1975 150 
Q 1550 -25 1125 187 
Q 700 400 525 750 
Q 350 1100 275 1487 
Q 200 1875 225 2537 
z
M 750 2687 
Q 675 2000 800 1462 
Q 925 925 1212 700 
Q 1500 475 1800 612 
Q 2100 750 2237 1162 
Q 2375 1575 2375 2062 
Q 2375 2550 2337 2950 
Q 2300 3350 2112 3675 
Q 1925 4000 1612 4012 
Q 1300 4025 1062 3700 
Q 825 3375 750 2687 
z
" transform="scale(0.015625)"/>
       </defs>
       <use xlink:href="#SimHei-31"/>
       <use xlink:href="#SimHei-37" x="50"/>
       <use xlink:href="#SimHei-30" x="100"/>
      </g>
     </g>
    </g>
    <g id="ytick_2">
     <g id="line2d_19">
      <path d="M 47.496875 174.742103 
L 892.621875 174.742103 
" clip-path="url(#p6f36f244ab)" style="fill: none; stroke: #b0b0b0; stroke-opacity: 0.24; stroke-width: 0.8; stroke-linecap: square"/>
     </g>
     <g id="line2d_20">
      <g>
       <use xlink:href="#m4811cee6ca" x="47.496875" y="174.742103" style="stroke: #000000; stroke-width: 0.8"/>
      </g>
     </g>
     <g id="text_2">
      <!-- 180 -->
      <g transform="translate(25.496875 178.179603) scale(0.1 -0.1)">
       <defs>
        <path id="SimHei-38" d="M 175 1375 
Q 175 1675 325 1962 
Q 475 2250 825 2425 
Q 525 2600 425 2812 
Q 325 3025 312 3300 
Q 300 3575 387 3775 
Q 475 3975 650 4150 
Q 825 4325 1037 4387 
Q 1250 4450 1500 4450 
Q 1750 4450 1950 4400 
Q 2150 4350 2375 4187 
Q 2600 4025 2700 3725 
Q 2800 3425 2687 3025 
Q 2575 2625 2100 2400 
Q 2525 2275 2700 2012 
Q 2875 1750 2875 1375 
Q 2875 1000 2762 775 
Q 2650 550 2512 400 
Q 2375 250 2137 162 
Q 1900 75 1537 75 
Q 1175 75 912 162 
Q 650 250 475 425 
Q 300 600 237 837 
Q 175 1075 175 1375 
z
M 687 1400 
Q 675 1100 787 875 
Q 900 650 1200 587 
Q 1500 525 1825 600 
Q 2150 675 2275 950 
Q 2400 1225 2362 1500 
Q 2325 1775 2050 1962 
Q 1775 2150 1450 2125 
Q 1125 2100 912 1900 
Q 700 1700 687 1400 
z
M 775 3350 
Q 775 3100 950 2875 
Q 1125 2650 1500 2650 
Q 1875 2650 2062 2875 
Q 2250 3100 2237 3412 
Q 2225 3725 2012 3875 
Q 1800 4025 1437 4000 
Q 1075 3975 925 3787 
Q 775 3600 775 3350 
z
" transform="scale(0.015625)"/>
       </defs>
       <use xlink:href="#SimHei-31"/>
       <use xlink:href="#SimHei-38" x="50"/>
       <use xlink:href="#SimHei-30" x="100"/>
      </g>
     </g>
    </g>
    <g id="ytick_3">
     <g id="line2d_21">
      <path d="M 47.496875 118.817851 
L 892.621875 118.817851 
" clip-path="url(#p6f36f244ab)" style="fill: none; stroke: #b0b0b0; stroke-opacity: 0.24; stroke-width: 0.8; stroke-linecap: square"/>
     </g>
     <g id="line2d_22">
      <g>
       <use xlink:href="#m4811cee6ca" x="47.496875" y="118.817851" style="stroke: #000000; stroke-width: 0.8"/>
      </g>
     </g>
     <g id="text_3">
      <!-- 190 -->
      <g transform="translate(25.496875 122.255351) scale(0.1 -0.1)">
       <defs>
        <path id="SimHei-39" d="M 800 75 
Q 1350 1000 1700 1750 
Q 1075 1650 662 1912 
Q 250 2175 162 2625 
Q 75 3075 175 3437 
Q 275 3800 487 4037 
Q 700 4275 1000 4375 
Q 1300 4475 1537 4475 
Q 1775 4475 2025 4375 
Q 2275 4275 2475 4075 
Q 2675 3875 2750 3662 
Q 2825 3450 2825 3112 
Q 2825 2775 2575 2250 
Q 2325 1725 1350 75 
L 800 75 
z
M 662 2875 
Q 700 2550 937 2337 
Q 1175 2125 1450 2150 
Q 1725 2175 1887 2300 
Q 2050 2425 2200 2725 
Q 2300 3100 2250 3362 
Q 2200 3625 1987 3800 
Q 1775 3975 1525 3975 
Q 1375 4000 1137 3900 
Q 900 3800 762 3500 
Q 625 3200 662 2875 
z
" transform="scale(0.015625)"/>
       </defs>
       <use xlink:href="#SimHei-31"/>
       <use xlink:href="#SimHei-39" x="50"/>
       <use xlink:href="#SimHei-30" x="100"/>
      </g>
     </g>
    </g>
    <g id="ytick_4">
     <g id="line2d_23">
      <path d="M 47.496875 62.893598 
L 892.621875 62.893598 
" clip-path="url(#p6f36f244ab)" style="fill: none; stroke: #b0b0b0; stroke-opacity: 0.24; stroke-width: 0.8; stroke-linecap: square"/>
     </g>
     <g id="line2d_24">
      <g>
       <use xlink:href="#m4811cee6ca" x="47.496875" y="62.893598" style="stroke: #000000; stroke-width: 0.8"/>
      </g>
     </g>
     <g id="text_4">
      <!-- 200 -->
      <g transform="translate(25.496875 66.331098) scale(0.1 -0.1)">
       <defs>
        <path id="SimHei-32" d="M 300 250 
Q 325 625 650 925 
Q 975 1225 1475 1862 
Q 1975 2500 2125 2850 
Q 2275 3200 2237 3450 
Q 2200 3700 2000 3862 
Q 1800 4025 1537 4000 
Q 1275 3975 1037 3800 
Q 800 3625 675 3275 
L 200 3350 
Q 400 3925 712 4187 
Q 1025 4450 1450 4475 
Q 1700 4500 1900 4462 
Q 2100 4425 2312 4287 
Q 2525 4150 2662 3875 
Q 2800 3600 2762 3212 
Q 2725 2825 2375 2287 
Q 2025 1750 1025 600 
L 2825 600 
L 2825 150 
L 300 150 
L 300 250 
z
" transform="scale(0.015625)"/>
       </defs>
       <use xlink:href="#SimHei-32"/>
       <use xlink:href="#SimHei-30" x="50"/>
       <use xlink:href="#SimHei-30" x="100"/>
      </g>
     </g>
    </g>
    <g id="text_5">
     <!-- 水位 (m) -->
     <g transform="translate(20.246875 169.850312) rotate(-90) scale(0.1 -0.1)">
      <defs>
       <path id="SimHei-6c34" d="M 3450 5175 
Q 3450 4800 3437 4500 
Q 3425 4200 3487 3762 
Q 3550 3325 3950 2725 
Q 4975 3575 5175 4050 
Q 5450 3800 5675 3575 
Q 5350 3350 5037 3075 
Q 4725 2800 4175 2325 
Q 4375 1900 4900 1375 
Q 5425 850 6175 625 
Q 5750 425 5675 125 
Q 4725 700 4212 1400 
Q 3700 2100 3425 2800 
L 3425 25 
Q 3450 -325 3162 -475 
Q 2875 -625 2400 -675 
Q 2375 -400 2175 -75 
Q 2575 -150 2750 -100 
Q 2925 -50 2925 225 
L 2925 4175 
Q 2925 4800 2875 5175 
L 3450 5175 
z
M 2550 3575 
Q 2425 2900 2237 2362 
Q 2050 1825 1737 1300 
Q 1425 775 750 100 
Q 575 325 225 450 
Q 925 950 1337 1600 
Q 1750 2250 1950 3125 
L 1275 3125 
Q 900 3125 425 3075 
L 425 3600 
Q 875 3575 1250 3575 
L 2550 3575 
z
" transform="scale(0.015625)"/>
       <path id="SimHei-4f4d" d="M 2125 4925 
Q 1950 4750 1625 3750 
L 1625 575 
Q 1625 -225 1650 -650 
L 1100 -650 
Q 1150 -200 1150 550 
L 1150 2950 
Q 775 2275 550 1950 
Q 375 2275 200 2425 
Q 525 2775 912 3575 
Q 1300 4375 1500 5200 
Q 1825 5000 2125 4925 
z
M 5375 3025 
Q 5275 2875 5100 2250 
Q 4925 1625 4600 300 
L 5450 300 
Q 5925 300 6100 325 
L 6100 -175 
Q 5875 -150 5450 -150 
L 2900 -150 
Q 2275 -150 2050 -175 
L 2050 325 
Q 2275 300 2850 300 
L 4075 300 
Q 4400 1400 4700 3175 
Q 5100 3075 5375 3025 
z
M 5250 4025 
Q 5700 4025 5925 4050 
L 5925 3575 
Q 5700 3600 5225 3600 
L 3000 3600 
Q 2650 3600 2275 3575 
L 2275 4050 
Q 2675 4025 3000 4025 
L 5250 4025 
z
M 3050 3050 
Q 3500 1775 3750 725 
Q 3450 625 3250 550 
Q 3125 1125 2962 1675 
Q 2800 2225 2550 2875 
Q 2800 2925 3050 3050 
z
M 3875 5200 
Q 4175 4675 4400 4300 
Q 4200 4250 3875 4075 
Q 3700 4525 3400 4950 
Q 3650 5050 3875 5200 
z
" transform="scale(0.015625)"/>
       <path id="SimHei-20" transform="scale(0.015625)"/>
       <path id="SimHei-28" d="M 2975 -200 
L 2700 -475 
Q 2075 125 1762 775 
Q 1450 1425 1450 2250 
Q 1450 3075 1762 3725 
Q 2075 4375 2700 5000 
L 2975 4725 
Q 2400 4175 2112 3587 
Q 1825 3000 1825 2250 
Q 1825 1500 2112 912 
Q 2400 325 2975 -200 
z
" transform="scale(0.015625)"/>
       <path id="SimHei-6d" d="M 3050 125 
L 2550 125 
L 2550 2150 
Q 2550 2300 2500 2400 
Q 2450 2500 2300 2500 
Q 2125 2500 1975 2312 
Q 1825 2125 1825 1825 
L 1825 125 
L 1325 125 
L 1325 2150 
Q 1325 2300 1275 2400 
Q 1225 2500 1075 2500 
Q 900 2500 750 2312 
Q 600 2125 600 1825 
L 600 125 
L 100 125 
L 100 2925 
L 600 2925 
L 600 2550 
Q 725 2750 900 2862 
Q 1075 2975 1275 2975 
Q 1475 2975 1612 2862 
Q 1750 2750 1800 2550 
Q 1925 2750 2087 2862 
Q 2250 2975 2450 2975 
Q 2750 2975 2900 2812 
Q 3050 2650 3050 2350 
L 3050 125 
z
" transform="scale(0.015625)"/>
       <path id="SimHei-29" d="M 1675 2250 
Q 1675 1425 1362 775 
Q 1050 125 425 -475 
L 150 -200 
Q 725 325 1012 912 
Q 1300 1500 1300 2250 
Q 1300 3000 1012 3587 
Q 725 4175 150 4725 
L 425 5000 
Q 1050 4375 1362 3725 
Q 1675 3075 1675 2250 
z
" transform="scale(0.015625)"/>
      </defs>
      <use xlink:href="#SimHei-6c34"/>
      <use xlink:href="#SimHei-4f4d" x="100"/>
      <use xlink:href="#SimHei-20" x="200"/>
      <use xlink:href="#SimHei-28" x="250"/>
      <use xlink:href="#SimHei-6d" x="300"/>
      <use xlink:href="#SimHei-29" x="350"/>
     </g>
    </g>
   </g>
   <g id="line2d_25">
    <path d="M 85.911648 55.251864 
L 91.067993 56.745549 
L 96.224338 55.988459 
L 132.318756 49.351721 
L 147.787792 46.71746 
L 163.256828 44.305841 
L 173.569518 42.816526 
L 189.038554 40.797758 
L 204.50759 39.031492 
L 219.976626 37.534374 
L 235.445662 36.312958 
L 250.914698 35.392632 
L 266.383734 34.816049 
L 281.85277 34.547837 
L 297.321806 34.597151 
L 312.790842 34.962119 
L 328.259878 35.633689 
L 343.728914 36.635791 
L 359.19795 37.930449 
L 374.666986 39.507365 
L 390.136022 41.144727 
L 415.917749 43.160166 
L 441.699476 44.975226 
L 462.324857 46.274151 
L 493.262929 48.021586 
L 534.513692 49.99853 
L 565.451764 51.267179 
L 611.858872 52.805705 
L 658.26598 54.026808 
L 699.516742 54.845073 
L 751.080196 55.757284 
L 792.330958 56.233886 
L 854.207102 56.767501 
L 854.207102 56.767501 
" clip-path="url(#p6f36f244ab)" style="fill: none; stroke: #005f73; stroke-width: 2.1; stroke-linecap: square"/>
   </g>
   <g id="line2d_26">
    <path d="M 85.911648 193.84732 
L 91.067993 193.817981 
L 111.693374 193.109997 
L 137.475101 192.25896 
L 163.256828 191.173628 
L 178.725864 190.38106 
L 204.50759 189.039376 
L 230.289317 187.908475 
L 271.54008 186.429564 
L 297.321806 185.676739 
L 312.790842 185.611403 
L 323.103533 185.625448 
L 328.259878 185.019006 
L 333.416224 183.585456 
L 338.572569 181.896387 
L 343.728914 180.378877 
L 348.88526 179.019923 
L 354.041605 178.080453 
L 374.666986 176.249474 
L 384.979677 176.217118 
L 395.292368 176.546609 
L 415.917749 177.415021 
L 421.074094 177.722455 
L 431.386785 178.574117 
L 441.699476 179.219989 
L 503.57562 182.739205 
L 544.826382 184.775764 
L 606.702526 187.50314 
L 637.640598 188.333057 
L 694.360397 189.928388 
L 745.92385 191.148554 
L 771.705577 191.479606 
L 818.112685 191.513835 
L 854.207102 191.526111 
L 854.207102 191.526111 
" clip-path="url(#p6f36f244ab)" style="fill: none; stroke: #0a9396; stroke-width: 2.1; stroke-linecap: square"/>
   </g>
   <g id="line2d_27">
    <path d="M 85.911648 265.171619 
L 101.380684 265.014001 
L 127.16241 264.902471 
L 137.475101 264.616989 
L 152.944137 263.955822 
L 173.569518 262.911065 
L 189.038554 261.907715 
L 209.663936 260.48769 
L 225.132972 259.581096 
L 256.071044 257.325952 
L 292.165461 254.278136 
L 333.416224 250.651552 
L 343.728914 249.991947 
L 354.041605 249.355958 
L 359.19795 248.656817 
L 364.354296 247.160531 
L 369.510641 244.798435 
L 390.136022 232.801412 
L 395.292368 230.572382 
L 400.448713 229.05456 
L 405.605058 227.812753 
L 410.761404 226.829587 
L 415.917749 226.090704 
L 421.074094 225.481765 
L 426.23044 225.048859 
L 436.54313 224.547601 
L 446.855821 224.472485 
L 457.168512 224.734558 
L 467.481202 225.214801 
L 482.950238 226.269234 
L 508.731965 228.411809 
L 529.357346 230.142702 
L 539.670037 231.058555 
L 549.982728 232.181549 
L 560.295418 233.608337 
L 570.608109 235.248821 
L 580.9208 237.078134 
L 591.23349 239.081505 
L 601.546181 241.276931 
L 611.858872 243.788843 
L 632.484253 248.875507 
L 637.640598 250.065606 
L 642.796944 251.131067 
L 647.953289 252.051706 
L 658.26598 253.539044 
L 668.57867 254.6224 
L 678.891361 255.455126 
L 694.360397 256.514137 
L 714.985778 257.626832 
L 740.767505 258.810481 
L 761.392886 259.577559 
L 792.330958 260.434526 
L 812.95634 260.784096 
L 838.738066 260.923508 
L 854.207102 260.964812 
L 854.207102 260.964812 
" clip-path="url(#p6f36f244ab)" style="fill: none; stroke: #bb3e03; stroke-width: 2.1; stroke-linecap: square"/>
   </g>
   <g id="patch_3">
    <path d="M 47.496875 276.70375 
L 47.496875 22.996875 
" style="fill: none; stroke: #000000; stroke-width: 0.8; stroke-linejoin: miter; stroke-linecap: square"/>
   </g>
   <g id="patch_4">
    <path d="M 47.496875 276.70375 
L 892.621875 276.70375 
" style="fill: none; stroke: #000000; stroke-width: 0.8; stroke-linejoin: miter; stroke-linecap: square"/>
   </g>
   <g id="text_6">
    <!-- 关键断面水位过程线 -->
    <g transform="translate(416.059375 16.996875) scale(0.12 -0.12)">
     <defs>
      <path id="SimHei-5173" d="M 4675 4850 
Q 4525 4675 4362 4375 
Q 4200 4075 4075 3825 
L 4625 3825 
Q 5150 3825 5550 3850 
L 5550 3375 
Q 5225 3400 4700 3400 
L 3400 3400 
L 3400 2150 
L 4975 2150 
Q 5475 2150 5875 2175 
L 5875 1700 
Q 5475 1725 5025 1725 
L 3500 1725 
Q 4250 450 6000 75 
Q 5775 -175 5600 -525 
Q 4025 0 3225 1300 
Q 2800 200 875 -600 
Q 775 -350 500 -150 
Q 2425 375 2875 1725 
L 1550 1725 
Q 975 1725 600 1700 
L 600 2150 
Q 875 2125 1450 2125 
L 2925 2125 
L 2925 3400 
L 1750 3400 
Q 1275 3400 900 3375 
L 900 3850 
Q 1275 3825 1775 3825 
L 3575 3825 
Q 3925 4625 4075 5150 
Q 4325 5000 4675 4850 
z
M 2125 5125 
Q 2450 4725 2800 4175 
Q 2500 4025 2325 3875 
Q 2025 4450 1725 4825 
Q 1950 4975 2125 5125 
z
" transform="scale(0.015625)"/>
      <path id="SimHei-952e" d="M 5675 3750 
Q 5825 3750 6075 3775 
L 6075 3325 
Q 5825 3350 5675 3350 
Q 5675 2650 5700 2450 
L 4700 2450 
L 4700 1975 
L 5200 1975 
Q 5400 1975 5650 2000 
L 5650 1575 
Q 5550 1600 5225 1600 
L 4700 1600 
L 4700 1075 
L 5375 1075 
Q 5575 1100 5825 1100 
L 5825 675 
Q 5550 700 5350 700 
L 4700 700 
L 4700 -50 
Q 5425 -100 6150 0 
Q 6025 -225 6000 -500 
Q 5125 -525 4562 -462 
Q 4000 -400 3637 -300 
Q 3275 -200 2875 175 
Q 2650 -250 2225 -625 
Q 2025 -425 1850 -275 
Q 2275 -25 2575 450 
Q 2250 950 2125 1700 
Q 2350 1750 2550 1800 
Q 2600 1325 2750 925 
Q 2900 1650 2925 2400 
Q 2500 2400 2250 2275 
Q 2150 2500 2075 2675 
Q 2300 2775 2462 3212 
Q 2625 3650 2750 4200 
Q 2475 4200 2125 4175 
L 2125 4625 
Q 2450 4600 2675 4600 
L 3300 4600 
Q 3225 4300 3075 3837 
Q 2925 3375 2750 2775 
L 3375 2775 
Q 3325 2275 3275 1725 
Q 3225 1175 3025 525 
Q 3375 225 3650 137 
Q 3925 50 4275 -25 
L 4275 700 
Q 3875 700 3425 675 
L 3425 1100 
Q 3925 1075 4275 1075 
L 4275 1600 
Q 3950 1600 3550 1575 
L 3550 2000 
Q 3950 1975 4275 1975 
L 4275 2450 
Q 3900 2450 3650 2400 
L 3650 2850 
Q 3950 2825 4275 2825 
L 4275 3375 
L 3725 3375 
Q 3525 3375 3350 3350 
L 3350 3775 
Q 3550 3750 3725 3750 
L 4275 3750 
L 4275 4250 
Q 4000 4250 3625 4225 
L 3625 4650 
Q 3950 4625 4300 4625 
Q 4300 5025 4275 5200 
L 4725 5200 
Q 4700 5000 4700 4625 
L 5725 4625 
Q 5675 4375 5675 3750 
z
M 2200 600 
Q 1925 400 1662 162 
Q 1400 -75 1125 -375 
Q 975 -200 775 0 
Q 975 200 1000 400 
L 1000 1625 
Q 825 1625 450 1600 
L 450 2025 
Q 800 2000 1000 2000 
L 1000 2800 
Q 875 2800 700 2775 
L 700 3200 
Q 1025 3175 1325 3175 
Q 1650 3175 2050 3225 
L 2050 2800 
Q 1625 2825 1400 2825 
L 1400 2025 
Q 1700 2025 1975 2050 
L 1975 1625 
Q 1650 1650 1400 1650 
L 1400 525 
Q 1750 800 1900 1000 
Q 1975 850 2200 600 
z
M 1025 3875 
Q 825 3575 500 3175 
Q 350 3350 175 3525 
Q 400 3700 675 4162 
Q 950 4625 1150 5200 
Q 1300 5125 1650 4975 
Q 1450 4650 1250 4275 
Q 1675 4275 2000 4300 
L 2000 3850 
Q 1625 3875 1025 3875 
z
M 5250 2825 
L 5250 3375 
L 4700 3375 
L 4700 2825 
L 5250 2825 
z
M 5250 3750 
L 5250 4250 
L 4700 4250 
L 4700 3750 
L 5250 3750 
z
" transform="scale(0.015625)"/>
      <path id="SimHei-65ad" d="M 3800 4600 
Q 4400 4600 4925 4687 
Q 5450 4775 5700 4900 
Q 5775 4700 6000 4375 
Q 5750 4375 5337 4337 
Q 4925 4300 4275 4250 
L 4275 3050 
L 5575 3050 
Q 5775 3050 6075 3075 
L 6075 2625 
Q 5750 2650 5500 2650 
L 5500 225 
Q 5500 -200 5550 -550 
L 5025 -550 
Q 5075 -125 5075 300 
L 5075 2650 
L 4275 2650 
Q 4275 2000 4225 1475 
Q 4175 950 4075 537 
Q 3975 125 3475 -600 
Q 3275 -450 3050 -350 
Q 3500 200 3650 725 
Q 3800 1250 3825 1800 
Q 3850 2350 3850 3250 
Q 3850 4150 3800 4600 
z
M 2600 5150 
Q 2575 4875 2575 4400 
L 2575 3225 
Q 3050 3225 3450 3250 
L 3450 2800 
Q 3075 2850 2575 2850 
L 2575 1450 
Q 2575 1000 2600 675 
L 2100 675 
Q 2125 1400 2125 2225 
Q 1850 1525 1450 1000 
Q 1250 1175 1075 1300 
Q 1700 2075 1925 2850 
Q 1700 2850 1225 2825 
L 1225 3250 
Q 1575 3225 2125 3225 
L 2125 4375 
Q 2125 4875 2100 5150 
L 2600 5150 
z
M 1000 475 
L 2550 475 
Q 2950 475 3300 500 
L 3300 50 
Q 2950 75 2325 75 
L 500 75 
Q 525 450 525 950 
L 525 3850 
Q 525 4300 500 4650 
L 1025 4650 
Q 1000 4300 1000 3950 
L 1000 475 
z
M 2975 2550 
Q 3275 2025 3625 1525 
L 3225 1225 
Q 3000 1725 2625 2325 
Q 2750 2425 2975 2550 
z
M 3625 4550 
Q 3450 4350 3350 4087 
Q 3250 3825 3125 3550 
Q 2925 3650 2700 3725 
Q 3000 4225 3125 4775 
Q 3375 4650 3625 4550 
z
M 1200 4675 
Q 1450 4700 1675 4725 
Q 1800 3950 1850 3675 
Q 1675 3650 1400 3600 
Q 1375 3875 1200 4675 
z
" transform="scale(0.015625)"/>
      <path id="SimHei-9762" d="M 5275 4850 
Q 5650 4850 5950 4875 
L 5950 4400 
Q 5600 4425 5275 4425 
L 3275 4425 
Q 3175 4200 2950 3575 
L 5525 3575 
Q 5500 3100 5500 2600 
L 5500 450 
Q 5500 -100 5525 -525 
L 5025 -525 
L 5025 -175 
L 1350 -175 
L 1350 -525 
L 850 -525 
Q 875 -200 875 425 
L 875 2650 
Q 875 3125 850 3575 
L 2475 3575 
Q 2700 4150 2750 4425 
L 1175 4425 
Q 800 4425 425 4400 
L 425 4875 
Q 825 4850 1175 4850 
L 5275 4850 
z
M 2200 225 
L 2200 3175 
L 1350 3175 
L 1350 225 
L 2200 225 
z
M 5025 225 
L 5025 3175 
L 4175 3175 
L 4175 225 
L 5025 225 
z
M 3750 225 
L 3750 1050 
L 2625 1050 
L 2625 225 
L 3750 225 
z
M 3750 2475 
L 3750 3175 
L 2625 3175 
L 2625 2475 
L 3750 2475 
z
M 3750 1425 
L 3750 2100 
L 2625 2100 
L 2625 1425 
L 3750 1425 
z
" transform="scale(0.015625)"/>
      <path id="SimHei-8fc7" d="M 250 -200 
Q 1025 475 1275 650 
L 1275 2475 
Q 675 2475 400 2450 
L 400 2950 
Q 625 2900 1325 2900 
L 1800 2900 
Q 1775 2525 1775 2150 
L 1775 600 
Q 2500 -25 3912 -37 
Q 5325 -50 6150 75 
Q 6000 -175 5925 -550 
L 4425 -550 
Q 3800 -550 3275 -512 
Q 2750 -475 2387 -300 
Q 2025 -125 1750 75 
Q 1475 275 1237 37 
Q 1000 -200 700 -625 
Q 550 -375 250 -200 
z
M 3625 850 
Q 4200 825 4350 875 
Q 4500 925 4500 1300 
L 4500 3575 
L 2875 3575 
Q 2600 3575 2275 3550 
L 2275 4025 
Q 2600 4000 3075 4000 
L 4500 4000 
Q 4500 4650 4450 5125 
L 5025 5125 
Q 5000 4800 5000 4000 
Q 5525 4000 5950 4025 
L 5950 3550 
Q 5550 3575 5000 3575 
L 5000 1100 
Q 5000 525 4662 412 
Q 4325 300 3825 275 
Q 3775 550 3625 850 
z
M 3125 1600 
Q 2900 2275 2575 2850 
Q 2800 2950 3050 3125 
Q 3500 2225 3625 1875 
Q 3450 1775 3125 1600 
z
M 1150 4975 
Q 1400 4675 1925 3875 
Q 1675 3725 1450 3550 
Q 950 4400 700 4625 
Q 925 4750 1150 4975 
z
" transform="scale(0.015625)"/>
      <path id="SimHei-7a0b" d="M 5825 4975 
Q 5800 4425 5800 3975 
Q 5800 3550 5825 3125 
L 3025 3125 
Q 3050 3600 3050 4025 
Q 3050 4450 3025 4975 
L 5825 4975 
z
M 400 4825 
Q 825 4875 1362 4987 
Q 1900 5100 2275 5275 
Q 2450 4950 2625 4725 
Q 2450 4750 2262 4712 
Q 2075 4675 1850 4650 
L 1850 3425 
Q 2200 3425 2600 3450 
L 2600 2975 
Q 2200 3000 1850 3000 
L 1850 800 
Q 1850 250 1875 -675 
L 1375 -675 
Q 1400 250 1400 775 
L 1400 1925 
Q 1050 1225 625 600 
Q 450 850 225 1050 
Q 575 1400 850 1850 
Q 1125 2300 1350 3000 
Q 725 3000 425 2975 
L 425 3450 
Q 850 3425 1050 3425 
L 1400 3425 
L 1400 4550 
Q 1075 4475 575 4400 
Q 500 4625 400 4825 
z
M 5100 2500 
Q 5500 2500 5950 2525 
L 5950 2075 
Q 5500 2100 5100 2100 
L 4625 2100 
L 4625 1300 
L 4900 1300 
Q 5275 1300 5775 1325 
L 5775 850 
Q 5275 875 4975 875 
L 4625 875 
L 4625 0 
L 5225 0 
Q 5675 0 6175 25 
L 6175 -450 
Q 5775 -425 5225 -425 
L 3550 -425 
Q 3000 -425 2600 -475 
L 2600 25 
Q 3000 0 3550 0 
L 4150 0 
L 4150 875 
L 3800 875 
Q 3400 875 3050 825 
L 3050 1325 
Q 3400 1300 3800 1300 
L 4150 1300 
L 4150 2100 
L 3750 2100 
Q 3300 2100 2900 2075 
L 2900 2525 
Q 3300 2500 3750 2500 
L 5100 2500 
z
M 5275 3575 
L 5275 4550 
L 3500 4550 
L 3500 3575 
L 5275 3575 
z
M 2300 2400 
Q 2550 2025 2825 1525 
Q 2675 1425 2425 1225 
Q 2175 1775 1925 2125 
Q 2075 2250 2300 2400 
z
" transform="scale(0.015625)"/>
      <path id="SimHei-7ebf" d="M 3450 4300 
Q 3450 4675 3375 5125 
Q 3700 5100 4050 5050 
Q 3975 4900 3950 4562 
Q 3925 4225 3950 3600 
L 4800 3750 
Q 5225 3850 5650 3975 
L 5750 3500 
Q 5325 3450 4875 3375 
L 3975 3200 
Q 3975 2800 4025 2500 
L 5000 2675 
Q 5500 2775 5950 2925 
L 6025 2450 
Q 5575 2375 5075 2275 
L 4100 2100 
Q 4150 1600 4350 1175 
Q 4575 1350 4787 1575 
Q 5000 1800 5175 2075 
Q 5550 1775 5750 1675 
Q 5425 1525 5237 1337 
Q 5050 1150 4625 750 
Q 4925 250 5162 112 
Q 5400 -25 5500 100 
Q 5600 225 5675 625 
Q 5900 450 6200 350 
Q 5775 -750 5275 -537 
Q 4775 -325 4225 450 
Q 3875 175 3537 -62 
Q 3200 -300 2700 -550 
Q 2575 -300 2325 -100 
Q 2825 75 3175 275 
Q 3525 475 3975 850 
Q 3750 1350 3650 2025 
Q 2900 1900 2600 1800 
L 2525 2275 
Q 2825 2275 3550 2425 
Q 3500 2825 3500 3100 
Q 2825 2950 2575 2875 
L 2475 3350 
Q 2725 3350 3450 3500 
L 3450 4300 
z
M 1950 4875 
Q 1700 4650 1462 4237 
Q 1225 3825 825 3225 
Q 1425 3250 1650 3250 
Q 1875 3625 2050 4075 
Q 2300 3900 2600 3800 
Q 2350 3550 2087 3125 
Q 1825 2700 1175 1675 
Q 1850 1725 2375 1775 
Q 2300 1525 2300 1350 
Q 2125 1350 1525 1287 
Q 925 1225 550 1125 
Q 525 1375 400 1650 
Q 700 1725 950 2050 
Q 1200 2375 1475 2875 
Q 650 2825 425 2675 
Q 350 2950 200 3225 
Q 525 3450 825 3962 
Q 1125 4475 1375 5150 
Q 1625 4975 1950 4875 
z
M 2575 875 
Q 2550 600 2575 450 
Q 1950 325 1450 200 
Q 950 75 525 -75 
Q 450 200 250 475 
Q 950 550 1325 612 
Q 1700 675 2575 875 
z
M 4850 4025 
Q 4675 4300 4375 4675 
L 4775 4875 
Q 4875 4750 5275 4275 
Q 5025 4175 4850 4025 
z
" transform="scale(0.015625)"/>
     </defs>
     <use xlink:href="#SimHei-5173"/>
     <use xlink:href="#SimHei-952e" x="100"/>
     <use xlink:href="#SimHei-65ad" x="200"/>
     <use xlink:href="#SimHei-9762" x="300"/>
     <use xlink:href="#SimHei-6c34" x="400"/>
     <use xlink:href="#SimHei-4f4d" x="500"/>
     <use xlink:href="#SimHei-8fc7" x="600"/>
     <use xlink:href="#SimHei-7a0b" x="700"/>
     <use xlink:href="#SimHei-7ebf" x="800"/>
    </g>
   </g>
   <g id="legend_1">
    <g id="patch_5">
     <path d="M 798.621875 171.225312 
L 885.621875 171.225312 
Q 887.621875 171.225312 887.621875 169.225312 
L 887.621875 130.475312 
Q 887.621875 128.475312 885.621875 128.475312 
L 798.621875 128.475312 
Q 796.621875 128.475312 796.621875 130.475312 
L 796.621875 169.225312 
Q 796.621875 171.225312 798.621875 171.225312 
z
" style="fill: #ffffff; opacity: 0.8; stroke: #cccccc; stroke-linejoin: miter"/>
    </g>
    <g id="line2d_28">
     <path d="M 800.621875 135.975312 
L 810.621875 135.975312 
L 820.621875 135.975312 
" style="fill: none; stroke: #005f73; stroke-width: 2.1; stroke-linecap: square"/>
    </g>
    <g id="text_7">
     <!-- RS 138154.4 -->
     <g transform="translate(828.621875 139.475312) scale(0.1 -0.1)">
      <defs>
       <path id="SimHei-52" d="M 3000 125 
L 2400 125 
L 1500 1975 
L 850 1975 
L 850 125 
L 275 125 
L 275 4400 
L 1525 4400 
Q 2125 4400 2500 4112 
Q 2875 3825 2875 3175 
Q 2875 2675 2625 2400 
Q 2375 2125 2050 2050 
L 3000 125 
z
M 2300 3175 
Q 2300 3525 2087 3725 
Q 1875 3925 1400 3925 
L 850 3925 
L 850 2450 
L 1550 2450 
Q 1850 2450 2075 2612 
Q 2300 2775 2300 3175 
z
" transform="scale(0.015625)"/>
       <path id="SimHei-53" d="M 2900 1325 
Q 2900 750 2537 412 
Q 2175 75 1550 75 
Q 925 75 575 425 
Q 225 775 225 1300 
L 225 1475 
L 800 1475 
L 800 1325 
Q 800 950 1025 750 
Q 1250 550 1550 550 
Q 1950 550 2137 762 
Q 2325 975 2325 1275 
Q 2325 1525 2100 1737 
Q 1875 1950 1450 2125 
Q 850 2350 587 2625 
Q 325 2900 325 3275 
Q 325 3800 687 4125 
Q 1050 4450 1550 4450 
Q 2200 4450 2487 4062 
Q 2775 3675 2775 3225 
L 2200 3225 
Q 2225 3500 2050 3725 
Q 1875 3950 1550 3950 
Q 1250 3950 1075 3787 
Q 900 3625 900 3350 
Q 900 3125 1037 2962 
Q 1175 2800 1750 2575 
Q 2300 2350 2600 2037 
Q 2900 1725 2900 1325 
z
" transform="scale(0.015625)"/>
       <path id="SimHei-33" d="M 250 1225 
L 700 1300 
Q 800 975 1025 762 
Q 1250 550 1587 562 
Q 1925 575 2125 837 
Q 2325 1100 2300 1437 
Q 2275 1775 2037 1962 
Q 1800 2150 1275 2225 
L 1275 2550 
Q 1800 2600 2037 2825 
Q 2275 3050 2250 3412 
Q 2225 3775 1925 3937 
Q 1625 4100 1287 3975 
Q 950 3850 750 3275 
L 300 3350 
Q 450 3800 712 4100 
Q 975 4400 1425 4450 
Q 1875 4500 2212 4337 
Q 2550 4175 2687 3837 
Q 2825 3500 2725 3100 
Q 2625 2700 2150 2400 
Q 2500 2250 2687 1950 
Q 2875 1650 2812 1162 
Q 2750 675 2375 375 
Q 2000 75 1525 87 
Q 1050 100 700 387 
Q 350 675 250 1225 
z
" transform="scale(0.015625)"/>
       <path id="SimHei-35" d="M 550 1325 
Q 725 650 1150 575 
Q 1575 500 1837 662 
Q 2100 825 2212 1087 
Q 2325 1350 2312 1675 
Q 2300 2000 2137 2225 
Q 1975 2450 1725 2525 
Q 1475 2600 1162 2525 
Q 850 2450 650 2175 
L 225 2225 
Q 275 2375 700 4375 
L 2675 4375 
L 2675 3925 
L 1075 3925 
Q 950 3250 825 2850 
Q 1200 3025 1525 3012 
Q 1850 3000 2150 2862 
Q 2450 2725 2587 2487 
Q 2725 2250 2787 2012 
Q 2850 1775 2837 1500 
Q 2825 1225 2725 937 
Q 2625 650 2425 462 
Q 2225 275 1937 162 
Q 1650 50 1275 75 
Q 900 100 562 350 
Q 225 600 100 1200 
L 550 1325 
z
" transform="scale(0.015625)"/>
       <path id="SimHei-34" d="M 2000 1100 
L 75 1100 
L 75 1525 
L 2100 4450 
L 2475 4450 
L 2475 1525 
L 3075 1525 
L 3075 1100 
L 2475 1100 
L 2475 150 
L 2000 150 
L 2000 1100 
z
M 2000 1525 
L 2000 3500 
L 600 1525 
L 2000 1525 
z
" transform="scale(0.015625)"/>
       <path id="SimHei-2e" d="M 1075 125 
L 500 125 
L 500 675 
L 1075 675 
L 1075 125 
z
" transform="scale(0.015625)"/>
      </defs>
      <use xlink:href="#SimHei-52"/>
      <use xlink:href="#SimHei-53" x="50"/>
      <use xlink:href="#SimHei-20" x="100"/>
      <use xlink:href="#SimHei-31" x="150"/>
      <use xlink:href="#SimHei-33" x="200"/>
      <use xlink:href="#SimHei-38" x="250"/>
      <use xlink:href="#SimHei-31" x="300"/>
      <use xlink:href="#SimHei-35" x="350"/>
      <use xlink:href="#SimHei-34" x="400"/>
      <use xlink:href="#SimHei-2e" x="450"/>
      <use xlink:href="#SimHei-34" x="500"/>
     </g>
    </g>
    <g id="line2d_29">
     <path d="M 800.621875 149.225312 
L 810.621875 149.225312 
L 820.621875 149.225312 
" style="fill: none; stroke: #0a9396; stroke-width: 2.1; stroke-linecap: square"/>
    </g>
    <g id="text_8">
     <!-- RS 70651.52 -->
     <g transform="translate(828.621875 152.725312) scale(0.1 -0.1)">
      <defs>
       <path id="SimHei-36" d="M 250 1612 
Q 275 1975 387 2225 
Q 500 2475 725 2850 
L 1750 4450 
L 2325 4450 
L 1275 2800 
Q 1950 2975 2350 2750 
Q 2750 2525 2887 2237 
Q 3025 1950 3037 1612 
Q 3050 1275 2937 950 
Q 2825 625 2537 362 
Q 2250 100 1737 75 
Q 1225 50 862 262 
Q 500 475 362 862 
Q 225 1250 250 1612 
z
M 1025 787 
Q 1250 550 1625 525 
Q 2000 500 2250 775 
Q 2500 1050 2500 1575 
Q 2500 2100 2187 2300 
Q 1875 2500 1487 2450 
Q 1100 2400 925 2075 
Q 750 1750 775 1387 
Q 800 1025 1025 787 
z
" transform="scale(0.015625)"/>
      </defs>
      <use xlink:href="#SimHei-52"/>
      <use xlink:href="#SimHei-53" x="50"/>
      <use xlink:href="#SimHei-20" x="100"/>
      <use xlink:href="#SimHei-37" x="150"/>
      <use xlink:href="#SimHei-30" x="200"/>
      <use xlink:href="#SimHei-36" x="250"/>
      <use xlink:href="#SimHei-35" x="300"/>
      <use xlink:href="#SimHei-31" x="350"/>
      <use xlink:href="#SimHei-2e" x="400"/>
      <use xlink:href="#SimHei-35" x="450"/>
      <use xlink:href="#SimHei-32" x="500"/>
     </g>
    </g>
    <g id="line2d_30">
     <path d="M 800.621875 162.475312 
L 810.621875 162.475312 
L 820.621875 162.475312 
" style="fill: none; stroke: #bb3e03; stroke-width: 2.1; stroke-linecap: square"/>
    </g>
    <g id="text_9">
     <!-- RS 659.942 -->
     <g transform="translate(828.621875 165.975312) scale(0.1 -0.1)">
      <use xlink:href="#SimHei-52"/>
      <use xlink:href="#SimHei-53" x="50"/>
      <use xlink:href="#SimHei-20" x="100"/>
      <use xlink:href="#SimHei-36" x="150"/>
      <use xlink:href="#SimHei-35" x="200"/>
      <use xlink:href="#SimHei-39" x="250"/>
      <use xlink:href="#SimHei-2e" x="300"/>
      <use xlink:href="#SimHei-39" x="350"/>
      <use xlink:href="#SimHei-34" x="400"/>
      <use xlink:href="#SimHei-32" x="450"/>
     </g>
    </g>
   </g>
  </g>
  <g id="axes_2">
   <g id="patch_6">
    <path d="M 47.496875 560.880625 
L 892.621875 560.880625 
L 892.621875 307.17375 
L 47.496875 307.17375 
z
" style="fill: #ffffff"/>
   </g>
   <g id="matplotlib.axis_3">
    <g id="xtick_9">
     <g id="line2d_31">
      <path d="M 85.911648 560.880625 
L 85.911648 307.17375 
" clip-path="url(#pf51bf74de5)" style="fill: none; stroke: #b0b0b0; stroke-opacity: 0.24; stroke-width: 0.8; stroke-linecap: square"/>
     </g>
     <g id="line2d_32">
      <g>
       <use xlink:href="#m478fa54aa6" x="85.911648" y="560.880625" style="stroke: #000000; stroke-width: 0.8"/>
      </g>
     </g>
     <g id="text_10">
      <!-- 0 -->
      <g transform="translate(83.411648 574.755625) scale(0.1 -0.1)">
       <use xlink:href="#SimHei-30"/>
      </g>
     </g>
    </g>
    <g id="xtick_10">
     <g id="line2d_33">
      <path d="M 189.038554 560.880625 
L 189.038554 307.17375 
" clip-path="url(#pf51bf74de5)" style="fill: none; stroke: #b0b0b0; stroke-opacity: 0.24; stroke-width: 0.8; stroke-linecap: square"/>
     </g>
     <g id="line2d_34">
      <g>
       <use xlink:href="#m478fa54aa6" x="189.038554" y="560.880625" style="stroke: #000000; stroke-width: 0.8"/>
      </g>
     </g>
     <g id="text_11">
      <!-- 20 -->
      <g transform="translate(184.038554 574.755625) scale(0.1 -0.1)">
       <use xlink:href="#SimHei-32"/>
       <use xlink:href="#SimHei-30" x="50"/>
      </g>
     </g>
    </g>
    <g id="xtick_11">
     <g id="line2d_35">
      <path d="M 292.165461 560.880625 
L 292.165461 307.17375 
" clip-path="url(#pf51bf74de5)" style="fill: none; stroke: #b0b0b0; stroke-opacity: 0.24; stroke-width: 0.8; stroke-linecap: square"/>
     </g>
     <g id="line2d_36">
      <g>
       <use xlink:href="#m478fa54aa6" x="292.165461" y="560.880625" style="stroke: #000000; stroke-width: 0.8"/>
      </g>
     </g>
     <g id="text_12">
      <!-- 40 -->
      <g transform="translate(287.165461 574.755625) scale(0.1 -0.1)">
       <use xlink:href="#SimHei-34"/>
       <use xlink:href="#SimHei-30" x="50"/>
      </g>
     </g>
    </g>
    <g id="xtick_12">
     <g id="line2d_37">
      <path d="M 395.292368 560.880625 
L 395.292368 307.17375 
" clip-path="url(#pf51bf74de5)" style="fill: none; stroke: #b0b0b0; stroke-opacity: 0.24; stroke-width: 0.8; stroke-linecap: square"/>
     </g>
     <g id="line2d_38">
      <g>
       <use xlink:href="#m478fa54aa6" x="395.292368" y="560.880625" style="stroke: #000000; stroke-width: 0.8"/>
      </g>
     </g>
     <g id="text_13">
      <!-- 60 -->
      <g transform="translate(390.292368 574.755625) scale(0.1 -0.1)">
       <use xlink:href="#SimHei-36"/>
       <use xlink:href="#SimHei-30" x="50"/>
      </g>
     </g>
    </g>
    <g id="xtick_13">
     <g id="line2d_39">
      <path d="M 498.419274 560.880625 
L 498.419274 307.17375 
" clip-path="url(#pf51bf74de5)" style="fill: none; stroke: #b0b0b0; stroke-opacity: 0.24; stroke-width: 0.8; stroke-linecap: square"/>
     </g>
     <g id="line2d_40">
      <g>
       <use xlink:href="#m478fa54aa6" x="498.419274" y="560.880625" style="stroke: #000000; stroke-width: 0.8"/>
      </g>
     </g>
     <g id="text_14">
      <!-- 80 -->
      <g transform="translate(493.419274 574.755625) scale(0.1 -0.1)">
       <use xlink:href="#SimHei-38"/>
       <use xlink:href="#SimHei-30" x="50"/>
      </g>
     </g>
    </g>
    <g id="xtick_14">
     <g id="line2d_41">
      <path d="M 601.546181 560.880625 
L 601.546181 307.17375 
" clip-path="url(#pf51bf74de5)" style="fill: none; stroke: #b0b0b0; stroke-opacity: 0.24; stroke-width: 0.8; stroke-linecap: square"/>
     </g>
     <g id="line2d_42">
      <g>
       <use xlink:href="#m478fa54aa6" x="601.546181" y="560.880625" style="stroke: #000000; stroke-width: 0.8"/>
      </g>
     </g>
     <g id="text_15">
      <!-- 100 -->
      <g transform="translate(594.046181 574.755625) scale(0.1 -0.1)">
       <use xlink:href="#SimHei-31"/>
       <use xlink:href="#SimHei-30" x="50"/>
       <use xlink:href="#SimHei-30" x="100"/>
      </g>
     </g>
    </g>
    <g id="xtick_15">
     <g id="line2d_43">
      <path d="M 704.673088 560.880625 
L 704.673088 307.17375 
" clip-path="url(#pf51bf74de5)" style="fill: none; stroke: #b0b0b0; stroke-opacity: 0.24; stroke-width: 0.8; stroke-linecap: square"/>
     </g>
     <g id="line2d_44">
      <g>
       <use xlink:href="#m478fa54aa6" x="704.673088" y="560.880625" style="stroke: #000000; stroke-width: 0.8"/>
      </g>
     </g>
     <g id="text_16">
      <!-- 120 -->
      <g transform="translate(697.173088 574.755625) scale(0.1 -0.1)">
       <use xlink:href="#SimHei-31"/>
       <use xlink:href="#SimHei-32" x="50"/>
       <use xlink:href="#SimHei-30" x="100"/>
      </g>
     </g>
    </g>
    <g id="xtick_16">
     <g id="line2d_45">
      <path d="M 807.799994 560.880625 
L 807.799994 307.17375 
" clip-path="url(#pf51bf74de5)" style="fill: none; stroke: #b0b0b0; stroke-opacity: 0.24; stroke-width: 0.8; stroke-linecap: square"/>
     </g>
     <g id="line2d_46">
      <g>
       <use xlink:href="#m478fa54aa6" x="807.799994" y="560.880625" style="stroke: #000000; stroke-width: 0.8"/>
      </g>
     </g>
     <g id="text_17">
      <!-- 140 -->
      <g transform="translate(800.299994 574.755625) scale(0.1 -0.1)">
       <use xlink:href="#SimHei-31"/>
       <use xlink:href="#SimHei-34" x="50"/>
       <use xlink:href="#SimHei-30" x="100"/>
      </g>
     </g>
    </g>
    <g id="text_18">
     <!-- 时间 (h) -->
     <g transform="translate(450.059375 588.013438) scale(0.1 -0.1)">
      <defs>
       <path id="SimHei-65f6" d="M 2525 4575 
Q 2500 3675 2500 2400 
Q 2500 1125 2525 400 
L 2000 400 
L 2000 875 
L 1000 875 
L 1000 50 
L 475 50 
Q 500 1200 500 2350 
Q 500 3525 475 4575 
L 2525 4575 
z
M 4875 3825 
Q 4875 4575 4850 5225 
L 5400 5225 
Q 5375 4575 5375 3825 
Q 5750 3825 6175 3850 
L 6175 3375 
Q 5750 3400 5375 3400 
L 5375 50 
Q 5375 -325 5075 -425 
Q 4775 -525 4300 -575 
Q 4300 -275 4025 0 
Q 4500 -50 4687 -25 
Q 4875 0 4875 300 
L 4875 3400 
Q 3625 3400 2775 3375 
L 2775 3850 
Q 3575 3825 4875 3825 
z
M 2000 1300 
L 2000 2550 
L 1000 2550 
L 1000 1300 
L 2000 1300 
z
M 2000 2975 
L 2000 4150 
L 1000 4150 
L 1000 2975 
L 2000 2975 
z
M 3550 2725 
Q 3875 2200 4175 1600 
Q 3925 1525 3650 1375 
Q 3450 1975 3075 2500 
Q 3300 2600 3550 2725 
z
" transform="scale(0.015625)"/>
       <path id="SimHei-95f4" d="M 4450 3550 
Q 4425 3075 4425 2725 
L 4425 1400 
Q 4425 1075 4450 625 
L 1925 625 
Q 1950 1075 1950 1425 
L 1950 2725 
Q 1950 3075 1925 3550 
L 4450 3550 
z
M 5800 4875 
Q 5775 4400 5775 3925 
L 5775 250 
Q 5800 -325 5462 -450 
Q 5125 -575 4725 -625 
Q 4700 -325 4525 -25 
Q 5000 -50 5137 25 
Q 5275 100 5275 350 
L 5275 4450 
L 3775 4450 
Q 3175 4450 2650 4425 
L 2650 4900 
Q 3175 4875 3775 4875 
L 5800 4875 
z
M 550 -525 
Q 600 -25 600 525 
L 600 3150 
Q 600 3675 550 4025 
L 1125 4025 
Q 1100 3650 1100 3300 
L 1100 500 
Q 1100 0 1125 -525 
L 550 -525 
z
M 3950 1025 
L 3950 1950 
L 2425 1950 
L 2425 1025 
L 3950 1025 
z
M 3950 2350 
L 3950 3150 
L 2425 3150 
L 2425 2350 
L 3950 2350 
z
M 1525 5300 
Q 1750 5000 2225 4350 
Q 1950 4225 1700 4075 
Q 1450 4575 1075 5025 
Q 1350 5225 1525 5300 
z
" transform="scale(0.015625)"/>
       <path id="SimHei-68" d="M 2800 125 
L 2300 125 
L 2300 1925 
Q 2300 2225 2150 2400 
Q 2000 2575 1750 2575 
Q 1425 2575 1137 2237 
Q 850 1900 850 1400 
L 850 125 
L 350 125 
L 350 4400 
L 850 4400 
L 850 2400 
Q 1050 2675 1287 2825 
Q 1525 2975 1900 2975 
Q 2350 2975 2575 2725 
Q 2800 2475 2800 2100 
L 2800 125 
z
" transform="scale(0.015625)"/>
      </defs>
      <use xlink:href="#SimHei-65f6"/>
      <use xlink:href="#SimHei-95f4" x="100"/>
      <use xlink:href="#SimHei-20" x="200"/>
      <use xlink:href="#SimHei-28" x="250"/>
      <use xlink:href="#SimHei-68" x="300"/>
      <use xlink:href="#SimHei-29" x="350"/>
     </g>
    </g>
   </g>
   <g id="matplotlib.axis_4">
    <g id="ytick_5">
     <g id="line2d_47">
      <path d="M 47.496875 555.404232 
L 892.621875 555.404232 
" clip-path="url(#pf51bf74de5)" style="fill: none; stroke: #b0b0b0; stroke-opacity: 0.24; stroke-width: 0.8; stroke-linecap: square"/>
     </g>
     <g id="line2d_48">
      <g>
       <use xlink:href="#m4811cee6ca" x="47.496875" y="555.404232" style="stroke: #000000; stroke-width: 0.8"/>
      </g>
     </g>
     <g id="text_19">
      <!-- 0 -->
      <g transform="translate(35.496875 558.841732) scale(0.1 -0.1)">
       <use xlink:href="#SimHei-30"/>
      </g>
     </g>
    </g>
    <g id="ytick_6">
     <g id="line2d_49">
      <path d="M 47.496875 521.968539 
L 892.621875 521.968539 
" clip-path="url(#pf51bf74de5)" style="fill: none; stroke: #b0b0b0; stroke-opacity: 0.24; stroke-width: 0.8; stroke-linecap: square"/>
     </g>
     <g id="line2d_50">
      <g>
       <use xlink:href="#m4811cee6ca" x="47.496875" y="521.968539" style="stroke: #000000; stroke-width: 0.8"/>
      </g>
     </g>
     <g id="text_20">
      <!-- 200 -->
      <g transform="translate(25.496875 525.406039) scale(0.1 -0.1)">
       <use xlink:href="#SimHei-32"/>
       <use xlink:href="#SimHei-30" x="50"/>
       <use xlink:href="#SimHei-30" x="100"/>
      </g>
     </g>
    </g>
    <g id="ytick_7">
     <g id="line2d_51">
      <path d="M 47.496875 488.532845 
L 892.621875 488.532845 
" clip-path="url(#pf51bf74de5)" style="fill: none; stroke: #b0b0b0; stroke-opacity: 0.24; stroke-width: 0.8; stroke-linecap: square"/>
     </g>
     <g id="line2d_52">
      <g>
       <use xlink:href="#m4811cee6ca" x="47.496875" y="488.532845" style="stroke: #000000; stroke-width: 0.8"/>
      </g>
     </g>
     <g id="text_21">
      <!-- 400 -->
      <g transform="translate(25.496875 491.970345) scale(0.1 -0.1)">
       <use xlink:href="#SimHei-34"/>
       <use xlink:href="#SimHei-30" x="50"/>
       <use xlink:href="#SimHei-30" x="100"/>
      </g>
     </g>
    </g>
    <g id="ytick_8">
     <g id="line2d_53">
      <path d="M 47.496875 455.097151 
L 892.621875 455.097151 
" clip-path="url(#pf51bf74de5)" style="fill: none; stroke: #b0b0b0; stroke-opacity: 0.24; stroke-width: 0.8; stroke-linecap: square"/>
     </g>
     <g id="line2d_54">
      <g>
       <use xlink:href="#m4811cee6ca" x="47.496875" y="455.097151" style="stroke: #000000; stroke-width: 0.8"/>
      </g>
     </g>
     <g id="text_22">
      <!-- 600 -->
      <g transform="translate(25.496875 458.534651) scale(0.1 -0.1)">
       <use xlink:href="#SimHei-36"/>
       <use xlink:href="#SimHei-30" x="50"/>
       <use xlink:href="#SimHei-30" x="100"/>
      </g>
     </g>
    </g>
    <g id="ytick_9">
     <g id="line2d_55">
      <path d="M 47.496875 421.661458 
L 892.621875 421.661458 
" clip-path="url(#pf51bf74de5)" style="fill: none; stroke: #b0b0b0; stroke-opacity: 0.24; stroke-width: 0.8; stroke-linecap: square"/>
     </g>
     <g id="line2d_56">
      <g>
       <use xlink:href="#m4811cee6ca" x="47.496875" y="421.661458" style="stroke: #000000; stroke-width: 0.8"/>
      </g>
     </g>
     <g id="text_23">
      <!-- 800 -->
      <g transform="translate(25.496875 425.098958) scale(0.1 -0.1)">
       <use xlink:href="#SimHei-38"/>
       <use xlink:href="#SimHei-30" x="50"/>
       <use xlink:href="#SimHei-30" x="100"/>
      </g>
     </g>
    </g>
    <g id="ytick_10">
     <g id="line2d_57">
      <path d="M 47.496875 388.225764 
L 892.621875 388.225764 
" clip-path="url(#pf51bf74de5)" style="fill: none; stroke: #b0b0b0; stroke-opacity: 0.24; stroke-width: 0.8; stroke-linecap: square"/>
     </g>
     <g id="line2d_58">
      <g>
       <use xlink:href="#m4811cee6ca" x="47.496875" y="388.225764" style="stroke: #000000; stroke-width: 0.8"/>
      </g>
     </g>
     <g id="text_24">
      <!-- 1000 -->
      <g transform="translate(20.496875 391.663264) scale(0.1 -0.1)">
       <use xlink:href="#SimHei-31"/>
       <use xlink:href="#SimHei-30" x="50"/>
       <use xlink:href="#SimHei-30" x="100"/>
       <use xlink:href="#SimHei-30" x="150"/>
      </g>
     </g>
    </g>
    <g id="ytick_11">
     <g id="line2d_59">
      <path d="M 47.496875 354.790071 
L 892.621875 354.790071 
" clip-path="url(#pf51bf74de5)" style="fill: none; stroke: #b0b0b0; stroke-opacity: 0.24; stroke-width: 0.8; stroke-linecap: square"/>
     </g>
     <g id="line2d_60">
      <g>
       <use xlink:href="#m4811cee6ca" x="47.496875" y="354.790071" style="stroke: #000000; stroke-width: 0.8"/>
      </g>
     </g>
     <g id="text_25">
      <!-- 1200 -->
      <g transform="translate(20.496875 358.227571) scale(0.1 -0.1)">
       <use xlink:href="#SimHei-31"/>
       <use xlink:href="#SimHei-32" x="50"/>
       <use xlink:href="#SimHei-30" x="100"/>
       <use xlink:href="#SimHei-30" x="150"/>
      </g>
     </g>
    </g>
    <g id="ytick_12">
     <g id="line2d_61">
      <path d="M 47.496875 321.354377 
L 892.621875 321.354377 
" clip-path="url(#pf51bf74de5)" style="fill: none; stroke: #b0b0b0; stroke-opacity: 0.24; stroke-width: 0.8; stroke-linecap: square"/>
     </g>
     <g id="line2d_62">
      <g>
       <use xlink:href="#m4811cee6ca" x="47.496875" y="321.354377" style="stroke: #000000; stroke-width: 0.8"/>
      </g>
     </g>
     <g id="text_26">
      <!-- 1400 -->
      <g transform="translate(20.496875 324.791877) scale(0.1 -0.1)">
       <use xlink:href="#SimHei-31"/>
       <use xlink:href="#SimHei-34" x="50"/>
       <use xlink:href="#SimHei-30" x="100"/>
       <use xlink:href="#SimHei-30" x="150"/>
      </g>
     </g>
    </g>
    <g id="text_27">
     <!-- 流量 (m3/s) -->
     <g transform="translate(15.246875 461.527188) rotate(-90) scale(0.1 -0.1)">
      <defs>
       <path id="SimHei-6d41" d="M 3725 5250 
Q 3975 4875 4225 4450 
L 5025 4450 
Q 5425 4450 5925 4475 
L 5925 4025 
Q 5325 4050 5025 4050 
L 3425 4050 
Q 3625 3900 3775 3825 
Q 3650 3725 3450 3475 
Q 3250 3225 2850 2775 
Q 3750 2800 4775 2850 
Q 4525 3150 4275 3375 
Q 4525 3550 4625 3675 
Q 5325 2950 5800 2375 
Q 5575 2200 5400 2050 
Q 5200 2325 5050 2525 
Q 4500 2475 3562 2412 
Q 2625 2350 2300 2250 
Q 2225 2475 2075 2675 
Q 2325 2750 2675 3175 
Q 3025 3600 3250 4050 
L 2975 4050 
Q 2525 4050 2050 4000 
L 2050 4475 
Q 2525 4450 2975 4450 
L 3675 4450 
Q 3475 4800 3325 5000 
Q 3575 5125 3725 5250 
z
M 5025 2025 
Q 5000 1700 5000 1375 
L 5000 150 
Q 5000 -75 5225 -75 
L 5475 -75 
Q 5675 -75 5700 500 
Q 5900 350 6200 275 
Q 6050 -350 5887 -425 
Q 5725 -500 5500 -500 
L 5025 -500 
Q 4550 -500 4550 -25 
L 4550 1425 
Q 4550 1725 4525 2025 
L 5025 2025 
z
M 3125 1975 
Q 3075 1725 3037 1212 
Q 3000 700 2812 225 
Q 2625 -250 1950 -700 
Q 1775 -475 1575 -325 
Q 2075 -100 2312 287 
Q 2550 675 2575 1162 
Q 2600 1650 2575 2025 
Q 2825 1975 3125 1975 
z
M 4000 2025 
Q 3975 1875 3975 1400 
L 3975 300 
Q 3975 -25 4000 -500 
L 3475 -500 
Q 3500 -50 3500 300 
L 3500 1400 
Q 3500 1825 3475 2025 
L 4000 2025 
z
M 1900 1625 
Q 1650 1200 1350 562 
Q 1050 -75 850 -425 
Q 625 -250 325 -125 
Q 575 175 900 750 
Q 1225 1325 1450 1950 
Q 1650 1775 1900 1625 
z
M 625 3450 
Q 1200 3100 1725 2725 
Q 1525 2525 1375 2275 
Q 925 2700 325 3000 
Q 475 3200 625 3450 
z
M 925 4975 
Q 1500 4625 1900 4300 
Q 1725 4075 1550 3875 
Q 1150 4275 625 4575 
Q 800 4800 925 4975 
z
" transform="scale(0.015625)"/>
       <path id="SimHei-91cf" d="M 5250 2500 
Q 5225 2200 5225 1700 
Q 5225 1225 5250 950 
L 3425 950 
L 3425 625 
L 4575 625 
Q 5000 625 5375 650 
L 5375 275 
Q 5025 300 4575 300 
L 3425 300 
L 3425 -75 
L 5125 -75 
Q 5525 -75 5925 -50 
L 5925 -425 
Q 5525 -400 5125 -400 
L 1275 -400 
Q 900 -400 475 -425 
L 475 -50 
Q 925 -50 1275 -75 
L 2975 -75 
L 2975 300 
L 1725 300 
Q 1350 300 975 250 
L 975 650 
Q 1375 625 1725 625 
L 2975 625 
L 2975 950 
L 1150 950 
Q 1175 1375 1175 1775 
Q 1175 2175 1150 2500 
L 5250 2500 
z
M 5200 4950 
Q 5175 4575 5175 4250 
Q 5175 3925 5200 3400 
L 1200 3400 
Q 1225 3925 1225 4250 
Q 1225 4575 1200 4950 
L 5200 4950 
z
M 4900 3100 
Q 5500 3125 6000 3150 
L 6000 2750 
Q 5500 2775 4925 2775 
L 1650 2775 
Q 975 2775 325 2750 
L 325 3150 
Q 975 3125 1650 3100 
L 4900 3100 
z
M 4725 3700 
L 4725 4025 
L 1675 4025 
L 1675 3700 
L 4725 3700 
z
M 4725 4350 
L 4725 4650 
L 1675 4650 
L 1675 4350 
L 4725 4350 
z
M 4750 1875 
L 4750 2175 
L 3425 2175 
L 3425 1875 
L 4750 1875 
z
M 2975 1875 
L 2975 2175 
L 1650 2175 
L 1650 1875 
L 2975 1875 
z
M 2975 1275 
L 2975 1550 
L 1650 1550 
L 1650 1275 
L 2975 1275 
z
M 4750 1275 
L 4750 1550 
L 3425 1550 
L 3425 1275 
L 4750 1275 
z
" transform="scale(0.015625)"/>
       <path id="SimHei-2f" d="M 3000 4550 
L 350 -175 
L 100 -25 
L 2750 4700 
L 3000 4550 
z
" transform="scale(0.015625)"/>
       <path id="SimHei-73" d="M 2750 900 
Q 2750 500 2437 287 
Q 2125 75 1650 75 
Q 1050 75 725 312 
Q 400 550 400 1000 
L 900 1000 
Q 900 700 1112 600 
Q 1325 500 1625 500 
Q 1925 500 2075 612 
Q 2225 725 2225 900 
Q 2225 1025 2100 1150 
Q 1975 1275 1475 1350 
Q 900 1425 687 1637 
Q 475 1850 475 2200 
Q 475 2500 762 2737 
Q 1050 2975 1600 2975 
Q 2100 2975 2387 2750 
Q 2675 2525 2675 2150 
L 2175 2150 
Q 2175 2375 2012 2462 
Q 1850 2550 1600 2550 
Q 1275 2550 1137 2437 
Q 1000 2325 1000 2175 
Q 1000 2000 1125 1900 
Q 1250 1800 1650 1750 
Q 2300 1650 2525 1437 
Q 2750 1225 2750 900 
z
" transform="scale(0.015625)"/>
      </defs>
      <use xlink:href="#SimHei-6d41"/>
      <use xlink:href="#SimHei-91cf" x="100"/>
      <use xlink:href="#SimHei-20" x="200"/>
      <use xlink:href="#SimHei-28" x="250"/>
      <use xlink:href="#SimHei-6d" x="300"/>
      <use xlink:href="#SimHei-33" x="350"/>
      <use xlink:href="#SimHei-2f" x="400"/>
      <use xlink:href="#SimHei-73" x="450"/>
      <use xlink:href="#SimHei-29" x="500"/>
     </g>
    </g>
   </g>
   <g id="line2d_63">
    <path d="M 85.911648 545.936298 
L 91.067993 549.242311 
L 96.224338 547.465654 
L 101.380684 544.99367 
L 106.537029 541.841653 
L 111.693374 538.028963 
L 116.84972 533.57913 
L 122.006065 528.519654 
L 127.16241 522.881643 
L 132.318756 516.699886 
L 137.475101 510.012497 
L 142.631446 502.860702 
L 147.787792 495.288579 
L 152.944137 487.342897 
L 158.100482 479.072518 
L 163.256828 470.528558 
L 173.569518 452.831667 
L 199.351245 407.612574 
L 204.50759 398.847578 
L 209.663936 390.303637 
L 214.820281 382.033249 
L 219.976626 374.087562 
L 225.132972 366.515453 
L 230.289317 359.363649 
L 235.445662 352.676255 
L 240.602008 346.494508 
L 245.758353 340.856482 
L 250.914698 335.797018 
L 256.071044 331.347181 
L 261.227389 327.534489 
L 266.383734 324.38248 
L 271.54008 321.910499 
L 276.696425 320.133837 
L 281.85277 319.063388 
L 287.009116 318.705881 
L 292.165461 319.063388 
L 297.321806 320.133837 
L 302.478152 321.910499 
L 307.634497 324.38248 
L 312.790842 327.534489 
L 317.947188 331.347181 
L 323.103533 335.797018 
L 328.259878 340.856482 
L 333.416224 346.494508 
L 338.572569 352.676255 
L 343.728914 359.363649 
L 348.88526 366.515453 
L 354.041605 374.087562 
L 359.19795 382.033249 
L 364.354296 390.303637 
L 369.510641 398.847578 
L 379.823332 416.544479 
L 384.979677 425.588205 
L 390.136022 431.688541 
L 395.292368 437.49134 
L 400.448713 443.011145 
L 405.605058 448.261725 
L 410.761404 453.256254 
L 415.917749 458.007215 
L 421.074094 462.526406 
L 426.23044 466.825274 
L 431.386785 470.914423 
L 436.54313 474.804181 
L 441.699476 478.504206 
L 446.855821 482.023767 
L 452.012166 485.371722 
L 457.168512 488.556355 
L 462.324857 491.585669 
L 467.481202 494.467282 
L 472.637548 497.208346 
L 477.793893 499.81567 
L 488.106584 504.655158 
L 498.419274 509.034077 
L 508.731965 512.996264 
L 519.044656 516.58144 
L 529.357346 519.825393 
L 539.670037 522.760689 
L 549.982728 525.416634 
L 560.295418 527.819832 
L 570.608109 529.994334 
L 580.9208 531.961912 
L 591.23349 533.742262 
L 601.546181 535.353136 
L 617.015217 537.486688 
L 632.484253 539.323088 
L 647.953289 540.903665 
L 663.422325 542.264065 
L 678.891361 543.434965 
L 699.516742 544.74651 
L 720.142124 545.820316 
L 745.92385 546.893127 
L 771.705577 547.728625 
L 802.643649 548.491031 
L 838.738066 549.134566 
L 854.207102 549.348494 
L 854.207102 549.348494 
" clip-path="url(#pf51bf74de5)" style="fill: none; stroke: #005f73; stroke-width: 2.1; stroke-linecap: square"/>
   </g>
   <g id="line2d_64">
    <path d="M 85.911648 545.936298 
L 91.067993 545.78164 
L 106.537029 544.820757 
L 142.631446 542.433795 
L 152.944137 541.389637 
L 163.256828 540.166461 
L 173.569518 538.793505 
L 183.882209 537.154374 
L 194.1949 535.281673 
L 209.663936 532.448324 
L 219.976626 530.570105 
L 276.696425 519.268433 
L 292.165461 516.121321 
L 297.321806 515.31049 
L 302.478152 515.104655 
L 312.790842 515.198849 
L 317.947188 515.32257 
L 323.103533 515.16677 
L 328.259878 508.752929 
L 333.416224 494.132543 
L 338.572569 476.723694 
L 343.728914 459.865741 
L 348.88526 442.077194 
L 354.041605 432.432615 
L 359.19795 426.766944 
L 364.354296 419.743124 
L 369.510641 413.248435 
L 374.666986 408.401454 
L 379.823332 408.41585 
L 384.979677 409.600165 
L 390.136022 412.107993 
L 395.292368 415.39933 
L 400.448713 418.406888 
L 405.605058 421.750122 
L 410.761404 424.657019 
L 415.917749 427.741494 
L 421.074094 433.020441 
L 426.23044 439.13619 
L 431.386785 444.262826 
L 436.54313 448.674504 
L 441.699476 452.0311 
L 452.012166 459.774132 
L 462.324857 467.1574 
L 472.637548 474.146964 
L 477.793893 477.442646 
L 482.950238 480.601247 
L 493.262929 486.447276 
L 503.57562 491.959273 
L 508.731965 494.553473 
L 519.044656 499.390404 
L 529.357346 503.775749 
L 539.670037 507.9105 
L 549.982728 511.694826 
L 560.295418 515.086144 
L 570.608109 518.221737 
L 580.9208 521.120052 
L 591.23349 523.836658 
L 601.546181 526.250903 
L 606.702526 527.152541 
L 617.015217 528.65285 
L 637.640598 531.279802 
L 658.26598 533.702761 
L 673.735016 535.308362 
L 689.204052 536.70104 
L 709.829433 538.307334 
L 730.454814 539.655211 
L 745.92385 540.467974 
L 761.392886 541.031717 
L 771.705577 541.238752 
L 812.95634 541.291814 
L 854.207102 541.326423 
L 854.207102 541.326423 
" clip-path="url(#pf51bf74de5)" style="fill: none; stroke: #0a9396; stroke-width: 2.1; stroke-linecap: square"/>
   </g>
   <g id="line2d_65">
    <path d="M 85.911648 545.936298 
L 101.380684 545.761368 
L 127.16241 545.639436 
L 137.475101 545.324116 
L 152.944137 544.591057 
L 173.569518 543.431575 
L 189.038554 542.318557 
L 199.351245 541.490009 
L 209.663936 540.298639 
L 219.976626 539.045438 
L 230.289317 537.551543 
L 256.071044 533.450583 
L 281.85277 528.805902 
L 297.321806 525.839915 
L 328.259878 519.84708 
L 338.572569 518.223477 
L 354.041605 516.182104 
L 359.19795 514.688917 
L 364.354296 511.519257 
L 369.510641 506.440437 
L 379.823332 493.310728 
L 384.979677 486.676674 
L 390.136022 480.442146 
L 395.292368 472.423745 
L 400.448713 463.073281 
L 405.605058 455.495051 
L 410.761404 449.493074 
L 415.917749 444.990664 
L 421.074094 441.267963 
L 426.23044 438.621657 
L 431.386785 436.753756 
L 436.54313 435.551754 
L 441.699476 435.005184 
L 446.855821 435.073198 
L 452.012166 435.661375 
L 457.168512 436.648462 
L 462.324857 437.958837 
L 467.481202 439.588746 
L 472.637548 441.498985 
L 482.950238 445.960499 
L 498.419274 453.451133 
L 513.88831 461.757849 
L 519.044656 464.524233 
L 534.513692 472.091831 
L 539.670037 475.035683 
L 544.826382 477.587689 
L 549.982728 478.914827 
L 555.139073 480.395768 
L 560.295418 482.001965 
L 570.608109 485.552551 
L 580.9208 489.513296 
L 591.23349 493.850784 
L 601.546181 498.60475 
L 611.858872 504.041924 
L 627.327908 512.426519 
L 637.640598 517.652784 
L 642.796944 519.966765 
L 647.953289 521.968461 
L 653.109634 523.69236 
L 658.26598 525.201562 
L 663.422325 526.46438 
L 668.57867 527.555878 
L 673.735016 528.527379 
L 684.047706 530.183209 
L 694.360397 531.675153 
L 704.673088 532.933686 
L 730.454814 535.677849 
L 751.080196 537.546175 
L 766.549232 538.661862 
L 787.174613 539.897492 
L 802.643649 540.625145 
L 818.112685 541.029105 
L 838.738066 541.21715 
L 854.207102 541.263005 
L 854.207102 541.263005 
" clip-path="url(#pf51bf74de5)" style="fill: none; stroke: #bb3e03; stroke-width: 2.1; stroke-linecap: square"/>
   </g>
   <g id="patch_7">
    <path d="M 47.496875 560.880625 
L 47.496875 307.17375 
" style="fill: none; stroke: #000000; stroke-width: 0.8; stroke-linejoin: miter; stroke-linecap: square"/>
   </g>
   <g id="patch_8">
    <path d="M 47.496875 560.880625 
L 892.621875 560.880625 
" style="fill: none; stroke: #000000; stroke-width: 0.8; stroke-linejoin: miter; stroke-linecap: square"/>
   </g>
   <g id="text_28">
    <!-- 关键断面流量过程线 -->
    <g transform="translate(416.059375 301.17375) scale(0.12 -0.12)">
     <use xlink:href="#SimHei-5173"/>
     <use xlink:href="#SimHei-952e" x="100"/>
     <use xlink:href="#SimHei-65ad" x="200"/>
     <use xlink:href="#SimHei-9762" x="300"/>
     <use xlink:href="#SimHei-6d41" x="400"/>
     <use xlink:href="#SimHei-91cf" x="500"/>
     <use xlink:href="#SimHei-8fc7" x="600"/>
     <use xlink:href="#SimHei-7a0b" x="700"/>
     <use xlink:href="#SimHei-7ebf" x="800"/>
    </g>
   </g>
  </g>
 </g>
 <defs>
  <clipPath id="p6f36f244ab">
   <rect x="47.496875" y="22.996875" width="845.125" height="253.706875"/>
  </clipPath>
  <clipPath id="pf51bf74de5">
   <rect x="47.496875" y="307.17375" width="845.125" height="253.706875"/>
  </clipPath>
 </defs>
</svg>
